<svg width="436" height="80" viewBox="0 0 436 80" fill="none" xmlns="http://www.w3.org/2000/svg">
<g clip-path="url(#clip0)">
<circle cx="40" cy="40" r="40" fill="#6B7280"/>
<path d="M15 15L25 15L25 25L15 25Z" fill="white"/>
<path d="M30 15L40 15L40 25L30 25Z" fill="white"/>
<path d="M45 15L55 15L55 25L45 25Z" fill="white"/>
<path d="M60 15L65 15L65 25L60 25Z" fill="white"/>
<path d="M15 30L25 30L25 40L15 40Z" fill="white"/>
<path d="M30 30L40 30L40 40L30 40Z" fill="white"/>
<path d="M45 30L55 30L55 40L45 40Z" fill="white"/>
<path d="M60 30L65 30L65 40L60 40Z" fill="white"/>
<path d="M15 45L25 45L25 55L15 55Z" fill="white"/>
<path d="M30 45L40 45L40 55L30 55Z" fill="white"/>
<path d="M45 45L55 45L55 55L45 55Z" fill="white"/>
<path d="M60 45L65 45L65 55L60 55Z" fill="white"/>
<path d="M15 60L25 60L25 65L15 65Z" fill="white"/>
<path d="M30 60L40 60L40 65L30 65Z" fill="white"/>
<path d="M45 60L55 60L55 65L45 65Z" fill="white"/>
<path d="M60 60L65 60L65 65L60 65Z" fill="white"/>
</g>
<text x="100" y="50" font-family="Arial, sans-serif" font-size="36" font-weight="bold" fill="#1F2937">meetexperts</text>
<defs>
<clipPath id="clip0">
<rect width="80" height="80" fill="white"/>
</clipPath>
</defs>
</svg>
